<svg width="14" height="14" viewBox="0 0 14 14" fill="none" xmlns="http://www.w3.org/2000/svg">
<path d="M7 0C5.61553 0 4.26216 0.410543 3.11101 1.17971C1.95987 1.94888 1.06266 3.04213 0.532846 4.32122C0.00303296 5.6003 -0.13559 7.00776 0.134506 8.36563C0.404603 9.7235 1.07129 10.9708 2.05026 11.9497C3.02922 12.9287 4.2765 13.5954 5.63437 13.8655C6.99224 14.1356 8.3997 13.997 9.67879 13.4672C10.9579 12.9373 12.0511 12.0401 12.8203 10.889C13.5895 9.73784 14 8.38447 14 7C13.998 5.1441 13.2598 3.36481 11.9475 2.05249C10.6352 0.740174 8.8559 0.00202579 7 0ZM10.1867 9.41333C10.1246 9.49194 10.0456 9.55555 9.95561 9.59941C9.86558 9.64327 9.76682 9.66626 9.66667 9.66666C9.51591 9.66787 9.36955 9.61594 9.25326 9.52L6.58659 7.52C6.50806 7.45788 6.44452 7.37889 6.40068 7.28887C6.35684 7.19885 6.33383 7.10012 6.33334 7V2.33333C6.33334 2.15652 6.40357 1.98695 6.5286 1.86193C6.65362 1.7369 6.82319 1.66667 7 1.66667C7.17681 1.66667 7.34638 1.7369 7.47141 1.86193C7.59643 1.98695 7.66667 2.15652 7.66667 2.33333V6.68L10.0801 8.48C10.1495 8.53348 10.2074 8.60034 10.2505 8.67663C10.2936 8.75292 10.3209 8.83708 10.3308 8.92412C10.3407 9.01116 10.3331 9.09931 10.3083 9.18334C10.2836 9.26738 10.2422 9.34558 10.1867 9.41333Z" fill="#FFAE00"/>
</svg>
