<svg width="96" height="96" viewBox="0 0 96 96" fill="none" xmlns="http://www.w3.org/2000/svg">
<path d="M63.2252 60.5184H83.9775C84.4684 60.5184 84.92 60.25 85.1544 59.8186C85.3889 59.3873 85.3688 58.8625 85.102 58.4504L78.0605 47.5762C77.8136 47.1949 77.3902 46.9647 76.936 46.9647H63.2252C62.4852 46.9647 61.8854 47.5646 61.8854 48.3045V59.1787C61.8854 59.9185 62.4852 60.5184 63.2252 60.5184ZM64.5651 49.6442H76.2075L81.5137 57.8387H64.5651V49.6442ZM92.3412 79.4446V60.4217C92.3412 59.3186 92.0497 58.3325 91.4502 57.4065L82.6809 43.8637C81.6391 42.2546 79.9419 41.3316 78.0247 41.3316H58.9666V27.2822C58.9666 26.5422 58.3668 25.9423 57.6268 25.9423H40.7017C40.8068 25.1712 40.8636 24.3877 40.8636 23.593V7.22798C40.8636 6.52935 40.3265 5.94786 39.63 5.89235C34.3495 5.47221 29.879 2.98489 27.0588 0.971867C26.8314 0.809938 26.5594 0.722656 26.2804 0.722656H15.3057C15.0266 0.722656 14.7546 0.809746 14.5274 0.971867C11.7071 2.98489 7.23659 5.4724 1.95627 5.89235C1.25974 5.94766 0.722656 6.52916 0.722656 7.22798V23.593C0.722656 26.6052 1.51278 29.4589 2.82621 32.0704V79.6747C1.59126 80.1982 0.722656 81.4228 0.722656 82.8465V86.0906C0.722656 87.9894 2.2673 89.5342 4.16605 89.5342H13.6983C15.5174 92.9477 19.1126 95.2773 23.2428 95.2773C27.3729 95.2773 30.9681 92.9477 32.7872 89.5344H62.3804C64.1993 92.9477 67.7945 95.2773 71.9246 95.2773C76.0548 95.2773 79.65 92.9477 81.4689 89.5344H91.8339C93.7327 89.5344 95.2773 87.9896 95.2773 86.0908V82.8467C95.2773 81.1206 93.9995 79.6913 92.3412 79.4446ZM89.6615 74.7456H89.4798C88.5911 74.7456 87.8682 74.0226 87.8682 73.1339C87.8682 72.245 88.5911 71.5221 89.4798 71.5221H89.6615V74.7456ZM78.0246 44.0117C79.0448 44.0117 79.877 44.4642 80.4315 45.3205L89.2008 58.8633C89.5193 59.3552 89.6613 59.836 89.6613 60.4221V68.8426H89.4796C87.1133 68.8426 85.1883 70.7678 85.1883 73.1341C85.1883 75.5003 87.1135 77.4255 89.4796 77.4255H89.6613V79.4033H81.4689C79.65 75.9899 76.0548 73.6601 71.9244 73.6601C67.7941 73.6601 64.1989 75.9897 62.38 79.4033H58.9662V44.0117H78.0246ZM23.2428 73.6599C19.1124 73.6599 15.5172 75.9895 13.6983 79.4031H5.5059V71.1429H56.2867V79.4031H32.7872C30.9683 75.9895 27.3731 73.6599 23.2428 73.6599ZM3.40234 8.43097C7.55184 7.87015 11.7813 6.1473 15.7302 3.40234H25.8558C29.8045 6.1473 34.0342 7.87015 38.1837 8.43078V23.5928C38.1837 33.4357 28.0254 41.6706 20.7929 43.7804C13.5607 41.6708 3.40234 33.4359 3.40234 23.593V8.43097ZM20.4463 46.4661C20.5598 46.4965 20.6764 46.5116 20.7931 46.5116C20.9097 46.5116 21.0263 46.4965 21.14 46.4661C28.1592 44.5851 37.4728 37.6845 40.1278 28.622H56.2869V68.4632H5.5059V36.2477C9.59529 41.4352 15.5735 45.1603 20.4463 46.4661ZM4.16605 86.8547C3.74496 86.8547 3.40234 86.5121 3.40234 86.0908V82.8467C3.40234 82.4256 3.74496 82.0829 4.16605 82.0829H12.7028C12.529 82.8511 12.434 83.6488 12.434 84.4688C12.434 85.2888 12.5288 86.0866 12.7028 86.8549H4.16605V86.8547ZM23.2428 92.5977C18.7604 92.5977 15.1137 88.951 15.1137 84.4686C15.1137 79.9863 18.7604 76.3396 23.2428 76.3396C27.7251 76.3396 31.3718 79.9863 31.3718 84.4686C31.3718 88.951 27.7253 92.5977 23.2428 92.5977ZM33.7829 86.8547C33.9567 86.0866 34.0517 85.2886 34.0517 84.4686C34.0517 83.6487 33.9569 82.8509 33.7829 82.0828H61.3847C61.2109 82.8509 61.1159 83.6487 61.1159 84.4686C61.1159 85.2886 61.2107 86.0864 61.3847 86.8547H33.7829ZM71.9246 92.5977C67.4423 92.5977 63.7956 88.951 63.7956 84.4686C63.7956 79.9863 67.4423 76.3396 71.9246 76.3396C76.407 76.3396 80.0537 79.9863 80.0537 84.4686C80.0537 88.951 76.407 92.5977 71.9246 92.5977ZM92.5977 86.0906C92.5977 86.5119 92.255 86.8545 91.8339 86.8545H82.4646C82.6384 86.0864 82.7333 85.2884 82.7333 84.4684C82.7333 83.6485 82.6386 82.8507 82.4646 82.0826H91.8338C92.2548 82.0826 92.5975 82.4252 92.5975 82.8463V86.0906H92.5977ZM71.9246 79.9172C69.4149 79.9172 67.3732 81.9589 67.3732 84.4684C67.3732 86.9782 69.4149 89.0199 71.9246 89.0199C74.4343 89.0199 76.4761 86.9782 76.4761 84.4684C76.4759 81.9589 74.4342 79.9172 71.9246 79.9172ZM71.9246 86.3404C70.8926 86.3404 70.0529 85.5007 70.0529 84.4686C70.0529 83.4366 70.8926 82.5971 71.9246 82.5971C72.9567 82.5971 73.7964 83.4368 73.7964 84.4686C73.7962 85.5007 72.9567 86.3404 71.9246 86.3404ZM23.2428 79.9172C20.733 79.9172 18.6913 81.9589 18.6913 84.4684C18.6913 86.9782 20.733 89.0199 23.2428 89.0199C25.7525 89.0199 27.7942 86.9782 27.7942 84.4684C27.7942 81.9589 25.7525 79.9172 23.2428 79.9172ZM23.2428 86.3404C22.2105 86.3404 21.371 85.5007 21.371 84.4686C21.371 83.4366 22.2107 82.5971 23.2428 82.5971C24.2748 82.5971 25.1145 83.4368 25.1145 84.4686C25.1145 85.5007 24.2748 86.3404 23.2428 86.3404ZM68.9885 64.362C68.9885 65.102 68.3886 65.7018 67.6486 65.7018H63.2252C62.4852 65.7018 61.8854 65.102 61.8854 64.362C61.8854 63.622 62.4852 63.0221 63.2252 63.0221H67.6486C68.3886 63.0221 68.9885 63.622 68.9885 64.362ZM9.87704 33.1094L12.9108 33.1019C13.5907 33.1002 14.2277 32.8353 14.7045 32.3558C14.7125 32.3478 14.7194 32.3388 14.7273 32.3305C15.2638 32.9028 16.0279 33.2523 16.8371 33.2523L27.8539 33.2236C27.8625 33.2236 27.8711 33.2234 27.8798 33.2232C29.6876 33.1838 31.1656 31.6908 31.1748 29.8951C31.1767 29.5063 31.1082 29.0456 30.8833 28.5677C31.8442 27.9242 32.3014 26.9126 32.3062 25.9439C32.3087 25.4669 32.2073 25.0267 32.0333 24.6316C33.0156 23.989 33.4826 22.969 33.4876 21.9932C33.4903 21.4424 33.3815 20.9361 33.1754 20.4919C33.1934 20.4762 33.211 20.4603 33.2286 20.4442C33.901 19.8292 34.2894 18.9547 34.294 18.0445C34.3034 16.1393 33.1586 14.9009 31.2315 14.7321C31.1919 14.7282 31.1543 14.7234 31.1126 14.7269L24.6224 14.7359C24.3717 14.7342 24.1525 14.7334 23.9599 14.7326C23.8032 14.7323 23.6531 14.7317 23.5188 14.7305L24.8092 9.2588C25.0598 8.22789 24.8923 7.15888 24.338 6.24855C23.7837 5.33842 22.9105 4.69912 21.8797 4.44895C20.8486 4.1984 19.7798 4.3655 18.8695 4.9202C17.9592 5.47451 17.3201 6.3477 17.0695 7.37862L15.7377 12.8626C15.6573 13.1076 15.1518 13.8127 14.7828 14.3272C14.4361 14.8109 14.069 15.3231 13.7373 15.8485C13.4642 15.7475 13.1702 15.6897 12.8626 15.6897C12.8605 15.6897 12.8582 15.6897 12.8561 15.6897L9.82211 15.6969C9.14223 15.6987 8.50523 15.9638 8.02844 16.4432C7.55165 16.9227 7.29057 17.5614 7.29268 18.2415L7.33536 30.5824C7.34014 31.9772 8.47691 33.1094 9.87149 33.1094H9.87704ZM16.9602 15.8887C17.6355 14.9468 18.169 14.2028 18.3372 13.5107L19.6732 8.01102C19.7546 7.67568 19.9642 7.39087 20.2631 7.20884C20.5621 7.02681 20.9116 6.9715 21.247 7.05284C21.5821 7.13438 21.8671 7.34397 22.0491 7.64276C22.2314 7.94173 22.2867 8.29105 22.203 8.6352L20.7882 14.6341C20.5933 15.4598 20.8536 16.2916 21.4849 16.8597C22.0924 17.406 22.5983 17.4077 23.9504 17.4125C24.1403 17.4133 24.3565 17.414 24.6148 17.4158L31.0529 17.4068C31.5974 17.4609 31.6164 17.5716 31.6141 18.0313C31.6133 18.1986 31.5444 18.3533 31.42 18.467C31.2453 18.627 30.9738 18.6957 30.6354 18.6678C29.9307 18.6048 29.3015 19.1063 29.1976 19.8055C29.0937 20.5047 29.5507 21.1647 30.2421 21.3128C30.7227 21.4158 30.8096 21.6183 30.8079 21.9799C30.8056 22.4473 30.1294 22.6126 29.5458 22.6126C29.5402 22.6126 29.5343 22.6126 29.5291 22.6126C28.89 22.6126 28.3395 23.0642 28.2149 23.6914C28.0899 24.3204 28.4281 24.9497 29.0217 25.1926C29.1499 25.2451 29.6288 25.5241 29.6267 25.9307C29.6244 26.3981 28.9608 26.5636 28.3887 26.5636C28.3833 26.5636 28.378 26.5638 28.3728 26.5636C27.7636 26.5636 27.2307 26.9748 27.0766 27.5647C26.922 28.1561 27.1874 28.7773 27.7218 29.0743C28.2363 29.3607 28.4969 29.6323 28.4955 29.8819C28.4938 30.2239 28.1843 30.5313 27.8309 30.5441L16.8339 30.5728C16.7369 30.5728 16.672 30.5028 16.6538 30.4582C16.4214 29.8903 15.9766 29.4612 15.4361 29.2403L15.3987 18.4333C15.6715 17.6864 16.3816 16.6957 16.9602 15.8887ZM12.7183 18.3697L12.76 30.4226L10.0143 30.4293L9.97256 18.3762L12.7183 18.3697Z" fill="#E62F39"/>
</svg>
