<svg width="18" height="16" viewBox="0 0 18 16" fill="none" xmlns="http://www.w3.org/2000/svg">
<path d="M8.59937 15.8293C8.70516 15.939 8.8492 16 9 16C9.1508 16 9.29484 15.939 9.40063 15.8293L16.5984 8.42286C18.4672 6.50057 18.4672 3.37143 16.5984 1.44838C15.6906 0.514286 14.4835 0 13.1983 0C11.9132 0 10.7068 0.514286 9.799 1.44762L9 2.27048L8.201 1.44838C7.29322 0.514286 6.08609 0 4.80169 0C3.51654 0 2.30941 0.514286 1.40163 1.44838C-0.467209 3.37143 -0.467209 6.50057 1.40163 8.4221L8.59937 15.8293ZM2.20213 2.25067C2.89684 1.53676 3.82038 1.14286 4.80094 1.14286C5.78224 1.14286 6.70503 1.53676 7.399 2.25143L8.59862 3.48571C8.80944 3.70286 9.18831 3.70286 9.39912 3.48571L10.5987 2.25067C11.295 1.53676 12.2178 1.14286 13.1983 1.14286C14.1796 1.14286 15.1024 1.53676 15.7971 2.25067C17.2353 3.73105 17.2353 6.13943 15.7971 7.62057L9 14.6156L2.20213 7.61981C0.763926 6.14019 0.763926 3.73105 2.20213 2.25067Z" fill="#777777"/>
</svg>
