<svg width="96" height="96" viewBox="0 0 96 96" fill="none" xmlns="http://www.w3.org/2000/svg">
<path d="M55.1113 7.11088H48.4203C46.8945 7.10614 45.3979 7.52874 44.1 8.33079C42.8021 9.13285 41.7547 10.2823 41.0764 11.649C40.6921 12.424 40.0985 13.0758 39.3627 13.5306C38.6269 13.9854 37.7784 14.2249 36.9134 14.222H28.4445C26.5591 14.2239 24.7514 14.9737 23.4183 16.3069C22.0851 17.6401 21.3353 19.4478 21.3334 21.3332C21.3334 29.4408 35.8543 35.5555 55.1113 35.5555C74.3683 35.5555 88.8892 29.4408 88.8892 21.3332C88.8892 13.2256 74.3683 7.11088 55.1113 7.11088ZM24.8889 21.3332C24.8902 20.3905 25.2652 19.4869 25.9317 18.8203C26.5982 18.1538 27.5019 17.7788 28.4445 17.7776H31.316L25.6244 23.4692C25.1758 22.8443 24.9201 22.1017 24.8889 21.3332ZM28.1789 25.9424L36.3439 17.7776H36.9128C38.4386 17.7823 39.9352 17.3597 41.2331 16.5577C42.531 15.7556 43.5784 14.6061 44.2567 13.2394C44.641 12.4644 45.2347 11.8125 45.9706 11.3577C46.7066 10.903 47.5552 10.6635 48.4203 10.6665H53.5138L35.0261 29.1528C32.604 28.4101 30.2989 27.3294 28.1789 25.9424ZM38.9594 30.2472L58.4722 10.736C61.5294 10.8543 64.5761 11.1663 67.5938 11.6698L47.6234 31.6404C44.7071 31.3741 41.8122 30.9086 38.9594 30.2472ZM55.1113 31.9999C54.1714 31.9999 53.2551 31.9759 52.3461 31.9455L71.7562 12.5354C74.3285 13.1399 76.8325 14.0053 79.2291 15.1182L62.7202 31.6281C60.3156 31.8601 57.7835 31.9999 55.1113 31.9999ZM68.562 30.8146L82.3891 16.9863C83.1792 17.4379 83.8554 18.0645 84.3658 18.818C84.8762 19.5715 85.2073 20.4319 85.3337 21.3332C85.3337 24.9734 78.851 28.9023 68.562 30.8146Z" fill="#E62F39"/>
<path d="M55.1114 3.93621e-05H44.8648C43.339 -0.0046959 41.8424 0.417897 40.5445 1.21996C39.2466 2.02201 38.1992 3.17149 37.5209 4.53819C37.1367 5.31316 36.543 5.96498 35.8072 6.41975C35.0714 6.87452 34.2229 7.11405 33.3579 7.11118H28.4446C24.674 7.11551 21.059 8.61531 18.3927 11.2816C15.7265 13.9478 14.2267 17.5628 14.2223 21.3335V39.8696C10.791 40.8389 7.69047 42.729 5.25685 45.3349C2.82324 47.9409 1.14939 51.1633 0.416757 54.6528C-0.315872 58.1424 -0.0793245 61.7659 1.10075 65.1305C2.28083 68.4952 4.35942 71.4726 7.11118 73.7401V94.2227C7.1112 94.5444 7.19854 94.8602 7.3639 95.1362C7.52927 95.4122 7.76644 95.6382 8.05014 95.79C8.33384 95.9419 8.65343 96.0138 8.97483 95.9983C9.29622 95.9828 9.60737 95.8803 9.8751 95.7018L19.5557 89.2486L29.2363 95.702C29.504 95.8805 29.8152 95.9829 30.1366 95.9985C30.458 96.014 30.7776 95.942 31.0613 95.7902C31.345 95.6383 31.5822 95.4123 31.7475 95.1363C31.9129 94.8602 32.0002 94.5445 32.0002 94.2227V73.7401C35.5398 70.8141 37.9371 66.736 38.7719 62.2201C44.1361 63.414 49.6159 64.0111 55.1114 64.0003C78.0404 64.0003 96.0005 54.6287 96.0005 42.6669V21.3335C96.0005 9.37164 78.0404 3.93621e-05 55.1114 3.93621e-05ZM28.4446 90.9014L20.5418 85.6324C20.25 85.4372 19.9068 85.3329 19.5557 85.3329C19.2046 85.3329 18.8614 85.4372 18.5695 85.6324L10.6668 90.9014V76.0639C13.415 77.4824 16.4629 78.2226 19.5557 78.2226C22.6485 78.2226 25.6963 77.4824 28.4446 76.0639V90.9014ZM19.5557 74.667C16.3912 74.667 13.2977 73.7287 10.6665 71.9705C8.03532 70.2124 5.98455 67.7136 4.77354 64.7899C3.56253 61.8663 3.24568 58.6492 3.86305 55.5455C4.48041 52.4418 6.00427 49.5909 8.24192 47.3532C10.4796 45.1156 13.3305 43.5917 16.4342 42.9743C19.5379 42.357 22.755 42.6738 25.6786 43.8848C28.6023 45.0958 31.1011 47.1466 32.8593 49.7778C34.6174 52.409 35.5558 55.5025 35.5558 58.667C35.551 62.909 33.8638 66.976 30.8642 69.9755C27.8647 72.9751 23.7977 74.6623 19.5557 74.667ZM92.4449 42.6669C92.4449 52.3041 75.3476 60.4448 55.1114 60.4448C49.7278 60.4501 44.3606 59.8497 39.1113 58.6547C39.1023 53.4721 37.0387 48.5045 33.3729 44.841C29.7071 41.1775 24.7383 39.1171 19.5557 39.1113C18.9557 39.1113 18.3646 39.1483 17.7779 39.2015V30.1716C24.1052 37.6025 38.2614 42.6669 55.1114 42.6669C71.9614 42.6669 86.1176 37.6025 92.4449 30.1716V42.6669ZM55.1114 39.1113C34.8752 39.1113 17.7779 30.9707 17.7779 21.3335C17.781 18.5054 18.9058 15.7941 20.9055 13.7944C22.9053 11.7947 25.6166 10.6699 28.4446 10.6668H33.3579C34.8836 10.6715 36.3802 10.2489 37.6781 9.44684C38.9761 8.64478 40.0235 7.4953 40.7017 6.1286C41.086 5.35363 41.6797 4.70181 42.4155 4.24704C43.1513 3.79227 43.9998 3.55274 44.8648 3.55561H55.1114C75.3476 3.55561 92.4449 11.6963 92.4449 21.3335C92.4449 30.9707 75.3476 39.1113 55.1114 39.1113Z" fill="#E62F39"/>
<path d="M27.0976 51.1251C26.7642 50.7918 26.312 50.6045 25.8406 50.6045C25.3692 50.6045 24.917 50.7918 24.5836 51.1251L12.0147 63.694C11.8461 63.8583 11.7119 64.0545 11.6198 64.271C11.5277 64.4876 11.4795 64.7203 11.478 64.9557C11.4765 65.191 11.5217 65.4243 11.6111 65.6421C11.7005 65.8598 11.8322 66.0576 11.9986 66.224C12.1651 66.3905 12.3629 66.5222 12.5806 66.6116C12.7983 66.7009 13.0316 66.7462 13.267 66.7447C13.5023 66.7432 13.7351 66.695 13.9516 66.6029C14.1682 66.5107 14.3643 66.3765 14.5286 66.208L27.0976 53.6391C27.4309 53.3057 27.6182 52.8535 27.6182 52.3821C27.6182 51.9106 27.4309 51.4585 27.0976 51.1251Z" fill="#E62F39"/>
<path d="M14.222 56.8895C16.1857 56.8895 17.7776 55.2976 17.7776 53.3339C17.7776 51.3702 16.1857 49.7783 14.222 49.7783C12.2583 49.7783 10.6664 51.3702 10.6664 53.3339C10.6664 55.2976 12.2583 56.8895 14.222 56.8895Z" fill="#E62F39"/>
<path d="M24.8889 67.5557C26.8526 67.5557 28.4445 65.9638 28.4445 64.0002C28.4445 62.0365 26.8526 60.4446 24.8889 60.4446C22.9253 60.4446 21.3334 62.0365 21.3334 64.0002C21.3334 65.9638 22.9253 67.5557 24.8889 67.5557Z" fill="#E62F39"/>
</svg>
