<svg width="108" height="108" viewBox="0 0 108 108" fill="none" xmlns="http://www.w3.org/2000/svg">
<g clip-path="url(#clip0_24_245)">
<path d="M53.8116 13.7236C54.9849 13.7236 55.936 12.7725 55.936 11.5992V2.12435C55.936 0.951117 54.9849 0 53.8116 0C52.6384 0 51.6873 0.951117 51.6873 2.12435V11.5992C51.6875 12.7725 52.6386 13.7236 53.8116 13.7236Z" fill="#E62F39"/>
<path d="M105.739 72.9813L101.986 69.2391C100.651 67.9057 98.8717 67.1713 96.9758 67.1713C95.7635 67.1713 94.5998 67.4729 93.5685 68.038L86.4966 60.9746L86.8411 60.6305C89.71 57.7559 89.709 53.0846 86.8409 50.2197C85.8159 49.1929 84.537 48.5081 83.1429 48.22C83.3349 47.5575 83.4359 46.8635 83.4359 46.1532C83.4359 44.1799 82.6693 42.3296 81.2818 40.9477C80.2566 39.9209 78.9779 39.2362 77.5839 38.948C77.7758 38.2855 77.8768 37.5917 77.8768 36.8813C77.8768 34.9077 77.1103 33.0576 75.7204 31.6736C74.6708 30.6253 73.3805 29.9617 72.0257 29.6792C72.7504 27.1803 72.1311 24.3687 70.1652 22.3994C68.5287 20.7699 66.3082 20.0696 64.1682 20.2965L50.1546 17.644C48.0174 17.2386 45.3484 16.9705 43.6636 18.5071C43.5573 18.6042 43.4489 18.7158 43.3422 18.84C40.7299 17.8878 37.6831 18.4548 35.5913 20.5444C34.2035 21.9304 33.4391 23.7799 33.4391 25.7522C33.4391 26.4626 33.5397 27.1564 33.7314 27.8192C32.3388 28.1071 31.0616 28.791 30.04 29.8144C28.6495 31.1992 27.8828 33.0466 27.8813 35.0166C27.8807 35.7287 27.9817 36.4248 28.1745 37.0893C26.7812 37.3766 25.5032 38.0591 24.4784 39.0826C23.0879 40.4716 22.3222 42.3222 22.3222 44.2934C22.3222 45.8033 22.773 47.2417 23.6083 48.4567C22.5536 48.8142 21.5875 49.4093 20.7786 50.2174C17.9077 53.0846 17.9067 57.7561 20.7805 60.6349L21.1237 60.9767L14.051 68.0365C11.4225 66.799 8.18394 67.2626 6.01487 69.4289L2.25976 73.1735C0.924107 74.5075 0.188779 76.2869 0.188568 78.1839C0.188568 80.0811 0.924107 81.8607 2.25976 83.1949L6.94616 87.8756C7.7762 88.7048 9.12135 88.704 9.95033 87.8739C10.7795 87.0439 10.7787 85.6987 9.94865 84.8698L5.26225 80.1891C4.73026 79.6577 4.43727 78.9456 4.43727 78.1841C4.43727 77.4228 4.73026 76.7109 5.26098 76.1808L9.0163 72.4361C9.95455 71.4989 11.3906 71.3592 12.4812 72.0112C12.5579 72.1266 12.6467 72.2363 12.7484 72.3382C12.9305 72.5206 13.1382 72.6605 13.3589 72.7628L34.8941 94.2664C34.9964 94.4894 35.1369 94.6992 35.3202 94.8828C35.4987 95.0614 35.7022 95.1996 35.9182 95.3013C36.3736 95.8162 36.6253 96.4739 36.6253 97.1754C36.6253 97.9369 36.3323 98.6488 35.8003 99.1802L32.0488 102.927C30.9403 104.031 29.1372 104.031 28.0321 102.931L23.3457 98.2438C22.5161 97.4142 21.1712 97.4142 20.3415 98.2438C19.5119 99.0734 19.5119 100.418 20.3415 101.248L25.0313 105.938C26.4117 107.313 28.2245 108 30.0381 108C31.8522 108 33.6671 107.312 35.0492 105.936L38.803 102.186C40.1387 100.852 40.8742 99.0728 40.8742 97.1754C40.8742 95.8214 40.4977 94.5284 39.7976 93.4134L47.7575 85.4631C47.7659 85.4545 47.7744 85.4458 47.783 85.4372C48.6945 84.4949 51.2327 84.6713 53.6874 84.8417C55.4314 84.963 57.3758 85.0978 59.2755 84.8788L67.9923 93.5853C67.4276 94.6149 67.1262 95.7771 67.1262 96.9875C67.1262 98.8828 67.8617 100.661 69.1974 101.995L72.9515 105.745C74.2863 107.078 76.0655 107.813 77.9614 107.813C79.8571 107.813 81.6364 107.078 82.9714 105.745L105.74 83.0036C107.076 81.6696 107.811 79.8902 107.811 77.993C107.811 76.096 107.076 74.3166 105.739 72.9813ZM49.3636 21.8184L58.5788 23.5627L53.063 29.0764C52.2098 28.6663 51.0403 27.9015 49.7574 26.6742C48.0014 24.9943 46.7452 23.0547 46.6309 21.845C46.6307 21.8444 46.6307 21.8437 46.6307 21.8431C46.6307 21.8429 46.6305 21.8427 46.6305 21.8425C46.6222 21.7556 46.6201 21.6862 46.6212 21.6332C46.899 21.5657 47.6369 21.4909 49.3636 21.8184ZM38.5935 23.5504C39.6697 22.4753 41.3416 22.3513 42.5577 23.1748C43.2468 26.0642 45.7116 28.683 46.8205 29.744C47.6423 30.5304 50.2793 32.888 52.9409 33.536C53.3009 34.0522 53.4969 34.6675 53.4969 35.3167C53.4969 36.1531 53.1752 36.9351 52.589 37.5206C52.0045 38.1062 51.2213 38.4285 50.3835 38.4285C49.5454 38.4285 48.7622 38.1062 48.1749 37.5179L48.1747 37.5177L48.1737 37.5166L38.5933 27.9536C38.0092 27.3703 37.6876 26.5884 37.6876 25.7522C37.6878 24.9158 38.0095 24.1339 38.5935 23.5504ZM33.0425 32.8205C33.627 32.2352 34.4094 31.9126 35.246 31.9126C36.0836 31.9126 36.8685 32.2358 37.4568 32.8235L45.1712 40.5225C46.386 41.7392 46.386 43.719 45.1754 44.9315C44.5877 45.5168 43.8018 45.8392 42.9625 45.8392C42.1232 45.8392 41.3372 45.5168 40.7521 44.934L40.7519 44.9338L34.8994 39.0826C34.8903 39.0735 34.8804 39.0651 34.8711 39.0558L33.0402 37.2257C32.4527 36.6389 32.1294 35.8555 32.13 35.0197C32.1308 34.1868 32.4531 33.4073 33.0425 32.8205ZM27.4809 42.0887C28.0659 41.5046 28.8499 41.1829 29.689 41.1829C30.5212 41.1829 31.2985 41.5 31.8809 42.0739L37.7513 47.9416C38.3366 48.5246 38.6591 49.3057 38.6591 50.141C38.6591 50.9761 38.3366 51.7572 37.7489 52.3426C37.1642 52.9264 36.381 53.2481 35.5434 53.2481C34.7045 53.2481 33.9187 52.9256 33.3332 52.3426L31.205 50.2169C31.2046 50.2163 31.204 50.2159 31.2036 50.2155L27.4811 46.4975C26.8943 45.9113 26.5712 45.1283 26.5712 44.293C26.5712 43.4579 26.8943 42.6747 27.4809 42.0887ZM23.7811 53.2232C24.3685 52.6364 25.1537 52.3132 25.9917 52.3132C26.8296 52.3132 27.6145 52.6362 28.2017 53.2226L30.3328 55.3512C30.9184 55.9342 31.2407 56.7153 31.2407 57.5506C31.2407 58.3859 30.9182 59.1668 30.3284 59.7545C29.7439 60.3398 28.9607 60.6624 28.1228 60.6624C27.2848 60.6624 26.5015 60.3401 25.9128 59.7503L25.646 59.4845C25.6424 59.4809 25.6397 59.4771 25.6363 59.4737C25.6323 59.4699 25.6281 59.4666 25.624 59.4628L23.7832 57.6291C22.5684 56.4118 22.5674 54.4355 23.7811 53.2232ZM67.0726 77.3667C66.2434 76.5365 64.8983 76.5358 64.0685 77.3648L62.1785 79.2525C60.3825 81.0484 57.1284 80.8223 53.9814 80.604C50.564 80.3665 47.0302 80.1213 44.7434 82.4691L36.9187 90.2843L17.3515 70.7458L24.2762 63.8336C25.4207 64.5352 26.7414 64.9113 28.1232 64.9113C30.0974 64.9113 31.9486 64.146 33.3313 62.7608C34.7233 61.3745 35.49 59.5244 35.49 57.5508C35.49 57.5325 35.4887 57.5143 35.4887 57.496C35.5071 57.4962 35.5255 57.4972 35.5438 57.4972C37.5152 57.4972 39.3649 56.7343 40.7495 55.3514C42.1415 53.9651 42.9083 52.1148 42.9083 50.1414C42.9083 50.1231 42.907 50.1049 42.907 50.0866C42.9256 50.0866 42.9441 50.0879 42.9629 50.0879C44.9337 50.0879 46.7845 49.3257 48.1783 47.9376C49.6254 46.4882 50.3411 44.5801 50.3274 42.6759C50.3463 42.6761 50.3653 42.6772 50.3843 42.6772C52.3585 42.677 54.2094 41.9119 55.5943 40.5246C56.982 39.1385 57.7464 37.289 57.7464 35.3167C57.7464 33.9374 57.3714 32.6189 56.6721 31.4766L62.7415 25.4099C63.1937 24.9595 63.7514 24.6769 64.3359 24.5602C64.3992 24.5535 64.4616 24.5433 64.5235 24.5311C65.4613 24.4018 66.4461 24.6912 67.1633 25.4054C68.3781 26.6223 68.3781 28.6022 67.1678 29.8147L65.3193 31.6555C65.3132 31.6616 65.3067 31.6671 65.3005 31.6732L63.1716 33.7986C62.3413 34.6276 62.3405 35.9728 63.1697 36.8028C63.9991 37.6331 65.344 37.6337 66.1738 36.8047L68.0296 34.9514C68.0301 34.951 68.0305 34.9506 68.0309 34.9501L68.3115 34.6706C69.5296 33.4637 71.5032 33.4662 72.7201 34.6814C73.3056 35.2644 73.6281 36.0455 73.6281 36.8808C73.6281 37.716 73.3056 38.4971 72.7154 39.0847L70.8564 40.9475C70.8562 40.9477 70.856 40.9479 70.8558 40.9484L68.727 43.0685C67.8957 43.8964 67.893 45.2416 68.7209 46.0727C69.5488 46.904 70.8938 46.9065 71.7251 46.0788L73.8635 43.9489C74.4481 43.3634 75.2313 43.0411 76.0691 43.0411C76.9072 43.0411 77.6906 43.3634 78.2793 43.9532C78.8649 44.5364 79.1872 45.3175 79.1872 46.1528C79.1872 46.9879 78.8649 47.769 78.2759 48.3554L74.5698 52.0631C73.7404 52.8929 73.7406 54.2378 74.5702 55.0672C74.9851 55.4819 75.5285 55.6891 76.0721 55.6891C76.6159 55.6891 77.1597 55.4815 77.5744 55.0666L79.3907 53.2496C79.4011 53.2397 79.4123 53.231 79.4226 53.2207C80.0071 52.6351 80.7903 52.3128 81.6282 52.3128C82.4662 52.3128 83.2494 52.6351 83.836 53.2228C85.0496 54.4351 85.0485 56.4116 83.836 57.6261L81.9893 59.4708C81.9887 59.4714 81.9878 59.472 81.9872 59.4727C81.9865 59.4733 81.9859 59.4742 81.9853 59.4748L79.0541 62.4024C78.224 63.2316 78.2232 64.5767 79.0522 65.4068C79.4671 65.8221 80.0113 66.0299 80.5553 66.0299C81.0985 66.0299 81.6419 65.8227 82.0566 65.4087L83.4903 63.9766L90.362 70.8403L70.7965 90.382L63.7862 83.3801C64.275 83.0658 64.7426 82.6963 65.1816 82.2573L67.0705 80.3707C67.901 79.5419 67.9018 78.1968 67.0726 77.3667ZM102.738 79.9975L79.9687 102.739C79.4361 103.271 78.7231 103.564 77.9612 103.564C77.1993 103.564 76.4863 103.271 75.9535 102.738L72.1995 98.9891C71.6675 98.4579 71.3745 97.7471 71.3745 96.9875C71.3745 96.2281 71.6675 95.5173 72.1995 94.9859L94.9683 72.2447C95.5011 71.7125 96.2139 71.4195 96.976 71.4195C97.7379 71.4195 98.4508 71.7125 98.9849 72.246L102.738 75.9882C103.27 76.5196 103.563 77.2313 103.563 77.9928C103.562 78.7545 103.27 79.4664 102.738 79.9975Z" fill="#E62F39"/>
<path d="M25.6032 11.9328C26.0179 12.3467 26.5608 12.5534 27.1038 12.5534C27.648 12.5534 28.1924 12.3454 28.6073 11.9297C29.4361 11.0992 29.4349 9.75428 28.6044 8.9255L20.8634 1.19992C20.0332 0.371144 18.688 0.372199 17.8592 1.20287C17.0305 2.03333 17.0317 3.37827 17.8622 4.20704L25.6032 11.9328Z" fill="#E62F39"/>
<path d="M80.5195 12.5533C81.0627 12.5533 81.606 12.3462 82.0207 11.9321L89.7558 4.20633C90.5859 3.37735 90.5867 2.0322 89.7575 1.20216C88.9285 0.372119 87.5836 0.371276 86.7533 1.20047L79.0183 8.92627C78.1882 9.75525 78.1874 11.1004 79.0166 11.9304C79.4315 12.3458 79.9755 12.5533 80.5195 12.5533Z" fill="#E62F39"/>
<path d="M13.2509 91.379C12.4284 92.2156 12.4398 93.5607 13.2766 94.3832L13.2827 94.3891C13.6955 94.7949 14.2315 94.997 14.7673 94.997C15.3172 94.997 15.8671 94.7841 16.2837 94.3604C17.1062 93.5238 17.0916 92.1757 16.255 91.3532C15.4187 90.5308 14.0737 90.5424 13.2509 91.379Z" fill="#E62F39"/>
<path d="M72.2684 74.3064C72.5916 74.3064 72.9194 74.2328 73.2272 74.0777C74.2747 73.5493 74.6955 72.2719 74.1673 71.2244C73.6389 70.1768 72.3613 69.7558 71.314 70.2842L71.3021 70.2901C70.2546 70.8185 69.8397 72.093 70.3679 73.1405C70.7408 73.8805 71.4909 74.3064 72.2684 74.3064Z" fill="#E62F39"/>
</g>
<defs>
<clipPath id="clip0_24_245">
<rect width="108" height="108" fill="white"/>
</clipPath>
</defs>
</svg>
